<?xml version="1.0" ?><!DOCTYPE svg  PUBLIC '-//W3C//DTD SVG 1.1//EN'  'http://www.w3.org/Graphics/SVG/1.1/DTD/svg11.dtd'><svg height="512px" style="enable-background:new 0 0 512 512;" version="1.1" viewBox="0 0 512 512" width="512px" xml:space="preserve" xmlns="http://www.w3.org/2000/svg" xmlns:xlink="http://www.w3.org/1999/xlink"><g id="B_-_156_x2C__Card_x2C__Business_x2C__corporate_x2C__id_x2C__id_card_x2C__identity_x2C__pass"><g><path fill="#fbb040" d="M256,78.552c-5.782,0-11.05,2.375-14.872,6.195    c-3.815,3.771-6.196,9.037-6.196,14.82v41.051l0.105,1.24v0.103v0.052v0.051v0.104c0.309,5.164,2.684,9.862,6.091,13.323    c2.48,2.427,5.479,4.285,8.886,5.318l0,0l0.724,0.155l0,0l0.408,0.155h0.105l0.21,0.051l0,0l0.204,0.052h0.105l0.204,0.051h0.105    l0.099,0.052h0.105l0.105,0.052h0.105l0.204,0.05h0.105h0.098h0.21v0.052h0.204h0.105l0.204,0.052h0.105h0.105h0.099l0.21,0.051    l0,0h0.204h0.105l0.204,0.052l0,0h0.211h0.098h0.21l0,0h0.309l0,0h0.204l0,0H256h0.21l0,0h0.31l0,0h0.203h0.105h0.204l0,0h0.21    h0.1l0.211-0.052l0,0h0.203h0.105l0.204-0.051h0.105h0.104h0.105l0.203-0.052h0.105h0.1l0.104-0.052h0.204h0.105h0.105l0.105-0.05    h0.098l0.211-0.052h0.1l0.104-0.052h0.105l0.203-0.051l0,0l0.21-0.052h0.1l0.21-0.051l0,0l0.408-0.155h0.105l0.724-0.155l0,0    c3.302-1.033,6.406-2.892,8.88-5.318c3.723-3.822,6.097-9.088,6.097-14.872V99.567c0-5.783-2.374-11.049-6.097-14.82    C267.051,80.927,261.788,78.552,256,78.552 M284.611,146.351c-1.137,5.784-4.031,10.947-7.951,14.922    c-1.758,1.704-3.724,3.202-5.788,4.492h-0.099l-0.83,0.517l0,0l-0.309,0.155l-0.105,0.051l-0.203,0.103l-0.619,0.311l-0.104,0.051    c-0.724,0.361-1.447,0.671-2.276,0.982l-0.099,0.05l-0.21,0.052l-0.1,0.051l-0.934,0.31l0,0l-1.033,0.31l-0.617,0.206h-0.105    l-0.204,0.052l-0.104,0.052l-0.311,0.05l0,0l-0.309,0.104h-0.105l-0.203,0.052h-0.105l-0.309,0.052l-0.1,0.05l-0.21,0.052h-0.105    l-0.204,0.052h-0.204l-0.21,0.051h-0.1l-0.21,0.052h-0.203l-0.105,0.05h-0.204l-0.211,0.052h-0.203l-0.105,0.052h-0.204h-0.21    l-0.205,0.051h-0.105h-0.308l0,0l-0.31,0.052h-0.105h-0.309l0,0l-0.31,0.051h-0.105h-0.309l0,0h-0.414l0,0H256h-0.408l0,0h-0.315    h-0.099h-0.21h-0.098l-0.31-0.051h-0.105h-0.309l0,0l-0.309-0.052h-0.105h-0.204h-0.105l-0.309-0.051h-0.105h-0.203l-0.105-0.052    h-0.31l-0.105-0.052h-0.204l-0.105-0.05h-0.204l-0.211-0.052h-0.204l-0.21-0.051h-0.098l-0.21-0.052h-0.099l-0.309-0.052    l-0.105-0.05l-0.21-0.052h-0.099l-0.21-0.052h-0.099l-0.309-0.104l0,0l-0.316-0.05l-0.099-0.052l-0.31-0.052l0,0l-0.625-0.206    l-1.032-0.31l0,0l0,0l-0.928-0.31l-0.105-0.051l-0.204-0.052l-0.105-0.05l-0.309-0.104c-1.138-0.413-2.171-0.929-3.302-1.548l0,0    l-0.31-0.156v-0.051c-2.375-1.29-4.44-2.943-6.407-4.802c-4.025-3.976-6.814-9.139-7.952-14.922H57.926    c-4.749,0-9.195,2.013-12.392,5.163c-3.098,3.15-5.064,7.539-5.064,12.393v251.985c0,4.751,1.861,9.036,4.959,12.187l0.105,0.207    c3.196,3.149,7.643,5.163,12.392,5.163h396.049c4.854,0,9.195-2.014,12.393-5.163c3.203-3.151,5.163-7.539,5.163-12.394V163.907    c0-4.854-1.96-9.243-5.163-12.393c-3.197-3.15-7.538-5.163-12.393-5.163H284.611z M256,366.476c-2.27,0-4.131-1.858-4.131-4.131    c0-2.22,1.861-4.079,4.131-4.079h168.337c2.27,0,4.025,1.859,4.025,4.079c0,2.272-1.756,4.131-4.025,4.131H256z M256,322.378    c-2.27,0-4.131-1.858-4.131-4.131c0-2.271,1.861-4.078,4.131-4.078h116.079c2.276,0,4.131,1.807,4.131,4.078    c0,2.272-1.854,4.131-4.131,4.131H256z M256,278.229c-2.27,0-4.131-1.808-4.131-4.079c0-2.272,1.861-4.079,4.131-4.079h168.337    c2.27,0,4.025,1.807,4.025,4.079c0,2.271-1.756,4.079-4.025,4.079H256z M256,234.132c-2.27,0-4.131-1.807-4.131-4.079    c0-2.273,1.861-4.08,4.131-4.08h116.079c2.276,0,4.131,1.807,4.131,4.08c0,2.271-1.854,4.079-4.131,4.079H256z M256,190.035    c-2.27,0-4.131-1.859-4.131-4.08c0-2.271,1.861-4.13,4.131-4.13h168.337c2.27,0,4.025,1.859,4.025,4.13    c0,2.221-1.756,4.08-4.025,4.08H256z M94.898,357.438c-2.276,0-4.131-1.806-4.131-4.078c0-2.221,1.855-4.08,4.131-4.08h83.652    c2.269,0,4.13,1.859,4.13,4.08c0,2.272-1.861,4.078-4.13,4.078H94.898z M94.898,334.048c-2.276,0-4.131-1.808-4.131-4.078    c0-2.272,1.855-4.132,4.131-4.132h83.652c2.269,0,4.13,1.859,4.13,4.132c0,2.271-1.861,4.078-4.13,4.078H94.898z M184.746,293.462    c-1.552-6.815-6.406-12.961-13.424-17.712c-8.782-5.937-21.068-9.655-34.597-9.655c-13.53,0-25.718,3.719-34.598,9.655    c-7.024,4.751-11.879,10.896-13.425,17.712H184.746z M88.182,277.301c2.585-3.048,5.788-5.835,9.399-8.314    c10.124-6.815,23.962-11.05,39.144-11.05c15.18,0,29.02,4.234,39.135,11.05c3.723,2.479,6.821,5.267,9.399,8.314v-80.966H88.182    V277.301z M136.725,301.62l-52.673,0.053l-0.099-0.053h-0.105l0,0h-0.105l0,0h-0.105l0,0h-0.099l0,0h-0.105v-0.051h-0.105l0,0l0,0    h-0.099l-0.105-0.052l0,0l0,0h-0.105l0,0h-0.105v-0.052h-0.099v-0.052h-0.105l0,0h-0.105v-0.052l0,0l-0.098-0.052l0,0h-0.105    v-0.051h-0.105l0,0l-0.099-0.052l0,0v-0.052c-1.349-0.672-2.171-2.014-2.171-3.614V192.254c0-2.271,1.756-4.079,4.025-4.079    H189.39c2.275,0,4.13,1.808,4.13,4.079v105.288c0,2.271-1.855,4.078-4.13,4.078H136.725z M147.465,222.875    c-2.69-2.737-6.512-4.44-10.741-4.44c-4.236,0-7.953,1.703-10.741,4.44c-2.789,2.789-4.44,6.61-4.44,10.792    s1.651,8.004,4.44,10.74c2.789,2.737,6.505,4.442,10.741,4.442c4.229,0,8.05-1.653,10.741-4.442    c2.789-2.736,4.439-6.558,4.439-10.74S150.254,225.664,147.465,222.875z M136.725,210.276c6.399,0,12.286,2.582,16.522,6.816    c4.235,4.234,6.919,10.121,6.919,16.575c0,6.456-2.684,12.291-6.919,16.524c-4.236,4.234-10.123,6.867-16.522,6.867    c-6.506,0-12.294-2.633-16.523-6.867c-4.236-4.233-6.919-10.068-6.919-16.524c0-6.454,2.683-12.289,6.919-16.523    C124.431,212.858,130.317,210.276,136.725,210.276z" style="fill-rule:evenodd;clip-rule:evenodd;"/></g></g><g id="Layer_1"/></svg>