<svg preserveAspectRatio="xMidYMid meet" data-bbox="10.89 33 293.77 248.904" viewBox="10.89 33 293.77 248.904" xmlns="http://www.w3.org/2000/svg" data-type="color" role="img">
    <g>
        <path d="M46.9 136.83a115 115 0 0 1 226.23 0h9.61C272.88 78 221.62 33 160 33S47.15 78 37.3 136.83z" fill="#262262" data-color="1"></path>
        <path d="M259.39 215.21a114.94 114.94 0 0 1-208.76-22.33h-9.9a124.4 124.4 0 0 0 229.47 22.33z" fill="#262262" data-color="1"></path>
        <path d="M110.09 198.74v.66a2.45 2.45 0 0 0 2.8 2.67 6.85 6.85 0 0 0 3.29-1l-.38 1.89-.3.1a7.75 7.75 0 0 1-3.07.56 4.32 4.32 0 0 1-3.67-1.48 3.87 3.87 0 0 1-.7-2.35 7.09 7.09 0 0 1 2.57-5.56 5.88 5.88 0 0 1 3.63-1.16 3.27 3.27 0 0 1 2.91 1.44 4.62 4.62 0 0 1 .52 2.35 6.37 6.37 0 0 1-.14 1.37l-.12.54zm5.59-1.41a2.06 2.06 0 0 0 .06-.52 2.66 2.66 0 0 0-.28-1.32 2 2 0 0 0-1.82-.92 3 3 0 0 0-2.27 1 4.06 4.06 0 0 0-1 1.74z" fill="#231f20" data-color="2"></path>
        <path d="M132.17 193.2h1.89l-.28 1.47a4.93 4.93 0 0 1 1.56-1.19 4.75 4.75 0 0 1 2.05-.44 3 3 0 0 1 2.67 1.12 3.13 3.13 0 0 1 .46 1.71 8.32 8.32 0 0 1-.18 1.48l-1.23 6.08h-1.88l1.06-5.29a10.27 10.27 0 0 0 .22-1.77 2.07 2.07 0 0 0-.26-1.12 1.7 1.7 0 0 0-1.52-.68 3.24 3.24 0 0 0-2.19.88 5.63 5.63 0 0 0-1.54 3.25l-1 4.73h-1.88z" fill="#231f20" data-color="2"></path>
        <path d="M165.45 188.39l-3 15h-1.8l.3-1.44a4.17 4.17 0 0 1-1.41 1 4.47 4.47 0 0 1-2.22.56 3.32 3.32 0 0 1-3.11-1.5 4.86 4.86 0 0 1-.54-2.39 7.29 7.29 0 0 1 2.3-5.38 4.67 4.67 0 0 1 3.31-1.28 3.4 3.4 0 0 1 2.13.54 2.57 2.57 0 0 1 .94 1l1.26-6.21zm-4.13 7.38a2.08 2.08 0 0 0-2-1.2 3 3 0 0 0-2.24 1 5.57 5.57 0 0 0-1.47 3.89 3.15 3.15 0 0 0 .42 1.71 2 2 0 0 0 1.79.92 3.28 3.28 0 0 0 2.34-1 5 5 0 0 0 1.51-3.61 3.48 3.48 0 0 0-.35-1.71z" fill="#231f20" data-color="2"></path>
        <path d="M179 198.74v.66a2.8 2.8 0 0 0 .46 1.69 2.83 2.83 0 0 0 2.35 1 6.89 6.89 0 0 0 3.29-1l-.38 1.89-.3.1a7.8 7.8 0 0 1-3.07.56 4.31 4.31 0 0 1-3.67-1.48 3.87 3.87 0 0 1-.7-2.35 7.12 7.12 0 0 1 2.56-5.56 5.93 5.93 0 0 1 3.63-1.16 3.26 3.26 0 0 1 2.91 1.44 4.63 4.63 0 0 1 .53 2.35 6.39 6.39 0 0 1-.15 1.37l-.12.54zm5.6-1.41a2.06 2.06 0 0 0 .06-.52 2.66 2.66 0 0 0-.28-1.32 2 2 0 0 0-1.83-.92 3 3 0 0 0-2.26 1 4.07 4.07 0 0 0-1 1.74z" fill="#231f20" data-color="2"></path>
        <path d="M201.5 193.92a8.06 8.06 0 0 1 3.71-.88 3.61 3.61 0 0 1 2.67.88 2.63 2.63 0 0 1 .66 1.89 6.53 6.53 0 0 1-.2 1.4l-.84 4.15a11.66 11.66 0 0 0-.3 1.65v.42h-1.77l.28-1.38a5.07 5.07 0 0 1-3.67 1.54 3.65 3.65 0 0 1-2.29-.72 2.17 2.17 0 0 1-.74-1.71 3.75 3.75 0 0 1 2.25-3.35 9.2 9.2 0 0 1 4-.68h1.27l.12-.56a3.82 3.82 0 0 0 .06-.56 1.26 1.26 0 0 0-.47-1 2.43 2.43 0 0 0-1.54-.44 6.1 6.1 0 0 0-3.35 1zm4.67 4.64h-1.06a5.9 5.9 0 0 0-3.05.56 1.93 1.93 0 0 0-1.06 1.68 1.2 1.2 0 0 0 .34.85 2.05 2.05 0 0 0 1.38.42 3.46 3.46 0 0 0 2.23-.8 3.32 3.32 0 0 0 1-1.83z" fill="#231f20" data-color="2"></path>
        <path d="M225.55 203.43h-2.25l-1.6-10.23h2.07l1.08 8.34 4.51-8.34h1.89z" fill="#231f20" data-color="2"></path>
        <path d="M252.29 194.65a4.14 4.14 0 0 1 .7 2.5 6.77 6.77 0 0 1-2.19 4.85 6.19 6.19 0 0 1-4.21 1.6 3.87 3.87 0 0 1-4.25-4 7.18 7.18 0 0 1 2.21-5 6.06 6.06 0 0 1 4.19-1.61 4.09 4.09 0 0 1 3.55 1.66zm-6.52 1.12a5.27 5.27 0 0 0-1.4 3.49 3.25 3.25 0 0 0 .4 1.72 2.52 2.52 0 0 0 2.14 1.09 3.74 3.74 0 0 0 2.65-1.21 5.2 5.2 0 0 0 1.41-3.43 3.19 3.19 0 0 0-.49-1.84 2.37 2.37 0 0 0-2-1 3.9 3.9 0 0 0-2.71 1.18z" fill="#231f20" data-color="2"></path>
        <path d="M274.62 203.43h-1.89L273 202a5 5 0 0 1-1.58 1.18 4.49 4.49 0 0 1-2.05.44 3.06 3.06 0 0 1-2.65-1.12 3.5 3.5 0 0 1-.48-1.75 8.26 8.26 0 0 1 .18-1.44l1.23-6.08h1.88l-1.06 5.3a9.62 9.62 0 0 0-.22 1.78 1.6 1.6 0 0 0 1.8 1.79 3.31 3.31 0 0 0 2.19-.89 5.94 5.94 0 0 0 1.61-3.24l1-4.74h1.88z" fill="#231f20" data-color="2"></path>
        <path d="M292.79 193.2l-.34 1.67a4.06 4.06 0 0 1 3.15-1.87 5.62 5.62 0 0 1 1 .1h.17l-.35 1.69a2.48 2.48 0 0 0-1-.18 2.75 2.75 0 0 0-2 .84 6.1 6.1 0 0 0-1.66 3.33l-.92 4.57H289l2-10.15z" fill="#231f20" data-color="2"></path>
        <path d="M30.6 173.51a76.22 76.22 0 0 0 8.45-.23c.76-.15 1.15-.75 1.15-1.79a2.19 2.19 0 0 0-1.61-2.36c-1.07-.33-3.74-.49-8-.49q-12.63 0-15.94-1.83t-3.31-9.1q0-6.71 4.32-8.59 3.3-1.43 14.7-1.42 10.14 0 12.86.55 6.38 1.29 6.38 10.84H39.51c0-1.75-.39-2.76-1.15-3.06s-3.42-.43-7.95-.43a62 62 0 0 0-7.9.25q-1.05.26-1.05 1.86a2.15 2.15 0 0 0 1.79 2.21 33.94 33.94 0 0 0 7.35.5q12.48 0 16.1 2t3.6 9.09q0 6.57-4 8.41-3.49 1.56-15.71 1.56a107.23 107.23 0 0 1-12.26-.48c-2.88-.42-4.84-1.43-5.88-3s-1.56-4.3-1.56-8.19H21c0 1.83.39 2.91 1.19 3.21s3.6.49 8.41.49z" fill="#262262" data-color="1"></path>
        <path d="M155.53 148.11v20q0 8.91-3.91 11.21-3.54 2.12-17 2.11t-16.95-2.11q-3.9-2.34-3.91-11.21v-20h10.11v20c0 2 .55 3.26 1.65 3.82q2 1 9.1 1t8.91-.94c1.25-.62 1.88-1.92 1.88-3.88v-20z" fill="#262262" data-color="1"></path>
        <path d="M176.42 148.11h17.36l16.22 32.8h-11.8l-3.12-5.51h-20l-3.08 5.51h-11.84zm9.47 7.4h-1.57l-5.46 11.39h12.45z" fill="#262262" data-color="1"></path>
        <path d="M235.12 173.51a76.09 76.09 0 0 0 8.45-.23c.77-.15 1.15-.75 1.15-1.79a2.19 2.19 0 0 0-1.61-2.36q-1.61-.49-8-.49-12.63 0-15.94-1.83t-3.3-9.1q0-6.71 4.31-8.59 3.31-1.43 14.7-1.42 10.16 0 12.86.55 6.39 1.29 6.39 10.84H244c0-1.75-.38-2.76-1.15-3.06s-3.41-.43-7.94-.43a61.74 61.74 0 0 0-7.9.25c-.71.17-1.06.79-1.06 1.86a2.16 2.16 0 0 0 1.79 2.21 34.07 34.07 0 0 0 7.35.5q12.49 0 16.1 2t3.6 9.09q0 6.57-4 8.41-3.48 1.56-15.7 1.56a107.23 107.23 0 0 1-12.22-.42c-2.88-.42-4.84-1.43-5.88-3s-1.56-4.3-1.56-8.19h10.1c0 1.83.4 2.91 1.2 3.21s3.58.43 8.39.43z" fill="#262262" data-color="1"></path>
        <path d="M262.63 148.16h10.11v11.48h21.81v-11.48h10.11V181h-10.11v-12.86h-21.81V181h-10.11z" fill="#262262" data-color="1"></path>
        <path d="M119.91 128.2h.92l12.4-24.2h11.39L128 136.83h-15.3L96.12 104h11.39z" fill="#262262" data-color="1"></path>
        <path d="M197.21 129.44a74.89 74.89 0 0 0 8.45-.24c.76-.15 1.15-.74 1.15-1.79a2.19 2.19 0 0 0-1.61-2.36c-1.07-.32-3.74-.48-8-.48q-12.63 0-15.94-1.84t-3.31-9.1q0-6.7 4.32-8.58 3.3-1.42 14.7-1.43 10.14 0 12.86.55 6.38 1.29 6.38 10.84h-10.1c0-1.74-.39-2.76-1.15-3.05s-3.42-.44-7.95-.44a64.16 64.16 0 0 0-7.9.25q-1.05.26-1.05 1.86a2.14 2.14 0 0 0 1.79 2.21 33.28 33.28 0 0 0 7.35.5q12.48 0 16.1 2t3.6 9.09q0 6.57-4 8.41-3.5 1.56-15.71 1.56a110.7 110.7 0 0 1-12.22-.41q-4.32-.65-5.88-3t-1.56-8.2h10.11c0 1.84.39 2.91 1.19 3.22s3.57.43 8.38.43z" fill="#262262" data-color="1"></path>
        <path fill="#fbb040" d="M249.24 120.52c0 7.798-6.322 14.12-14.12 14.12-7.798 0-14.12-6.322-14.12-14.12 0-7.798 6.322-14.12 14.12-14.12 7.798 0 14.12 6.322 14.12 14.12z" data-color="3"></path>
        <path fill="#fbb040" d="M172.22 120.52c0 7.798-6.322 14.12-14.12 14.12-7.798 0-14.12-6.322-14.12-14.12 0-7.798 6.322-14.12 14.12-14.12 7.798 0 14.12 6.322 14.12 14.12z" data-color="3"></path>
        <path d="M101.28 168.54l-.07.12a.75.75 0 0 0 .07-.12z" fill="#262262" data-color="1"></path>
        <path d="M101.55 168.11a3.46 3.46 0 0 1-.24.43z" fill="#262262" data-color="1"></path>
        <path d="M100.5 140.67q-3.12-2.52-18.78-2.53t-18.84 2.57C61 142.28 60 147.05 60 155.05c0 5.81.3 9.63.92 11.43a6.35 6.35 0 0 0 .92 1.75l14.75 23.9v15.56h10.1v-15.56l14.48-23.47.07-.12a3.46 3.46 0 0 0 .24-.43c1.27-2.25 1.92-6.58 1.92-13.06q.04-12-2.9-14.38zm-11.28 31l-1.47 2.39-6.07 9.84-7.5-12.16c-4.11-6.73-3.73-12-3.73-12a28 28 0 0 1-.32-4.7q0-6.35 1.45-7.38t10.17-1c5.79 0 9.16.34 10.13 1s1.45 3.15 1.45 7.38a31.4 31.4 0 0 1-.23 4.12c.14.15-1.67 8.94-1.67 8.94z" fill="#262262" data-color="1"></path>
    </g>
</svg>