<svg preserveAspectRatio="xMidYMid meet"
     data-bbox="-0.03 0 294.93 94.441"
     viewBox="-0.03 0 294.93 94.441" xmlns="http://www.w3.org/2000/svg" data-type="color"
     role="img">
    <g>
        <path d="M24.4 57.61l-11-16.63V63.7H-.03V10.59h13.4v22.52l11-16.74c3.54-5.47 9.9-7.29 18.35-5.89L25.88 36.96 38.6 57.08 62.16 0l24.76 60V10.59h18.4v11.46a8.4 8.4 0 0 0-1.15-.05h-4.4v14.49a21.18 21.18 0 0 0 5.58-.83v7c-1.35-1.88-3.44-4.12-5.58-4.64v25.69H87.21c-8.13.21-13.08-.93-15.53-6.93l-9.49-23-9.49 23c-2.29 5.58-6.67 7-13.81 7-6.31 0-10.79-.58-14.49-6.15zm80.95-47h4.48c7.3 0 14.5 5.21 14.5 14.49 0 8.23-4.54 10.06-7.2 12.67 3.34 2.24 4.33 6 5.53 9.17a44.42 44.42 0 0 0 3.44 7.87L148.62.02l23.61 57.2V10.59h13.35v22.52l11-16.74c3.59-5.47 9.9-7.29 18.35-5.89l-16.84 26.48 12.77 20.12L234.42 0l23.55 57.22V10.59h12.93v42.95h24c0 6.78-4.74 10.22-10.16 10.22l-25.44-.06c-8.08.21-13-.93-15.43-6.93l-9.49-23-9.49 23c-2.29 5.58-6.72 7-13.81 7-6.36 0-10.84-.58-14.54-6.15l-11-16.63v22.72h-11.9c-8.13.21-13.08-.93-15.53-6.93l-9.49-23-9.44 23c-2.66 6.41-8.08 7.46-14.85 7.46-3 0-7-.68-9.6-3.18-4-4-5.1-11.68-8.44-17.05a13.37 13.37 0 0 0-.94-1.35v-7c3.49-1.1 5.58-3.18 5.58-6.46 0-4.23-1.77-6.73-5.58-7.15V10.59z"
              fill-rule="evenodd" fill="#ffffff" data-color="1"></path>
        <path d="M148.62 78.09a10.82 10.82 0 1 0-10.74-10.79 10.83 10.83 0 0 0 10.74 10.79z"
              fill="#e3132f"
              fill-rule="evenodd" data-color="2"></path>
        <path d="M117.81 94.22v-12.5h5.31a9.27 9.27 0 0 1 2.92.34 2.92 2.92 0 0 1 1.45 1.2 3.56 3.56 0 0 1 .55 2 3.36 3.36 0 0 1-.83 2.33 4 4 0 0 1-2.48 1.15 6 6 0 0 1 1.36 1.05 16.15 16.15 0 0 1 1.44 2l1.52 2.44h-3l-1.82-2.72a19.07 19.07 0 0 0-1.33-1.84 2.11 2.11 0 0 0-.76-.52 4.33 4.33 0 0 0-1.28-.14h-.51v5.21zm2.52-7.22h1.87a9.88 9.88 0 0 0 2.27-.15 1.36 1.36 0 0 0 .71-.53 1.63 1.63 0 0 0 .26-.94 1.53 1.53 0 0 0-.34-1 1.61 1.61 0 0 0-.95-.49h-3.85v3.17zm10.07-5.29h2.57v6.78a14.71 14.71 0 0 0 .09 2.09 2.06 2.06 0 0 0 .77 1.23 2.71 2.71 0 0 0 1.67.47 2.6 2.6 0 0 0 1.63-.44 1.71 1.71 0 0 0 .65-1.08 13.28 13.28 0 0 0 .11-2.12v-6.92h2.53v6.58a16.45 16.45 0 0 1-.21 3.18 3.43 3.43 0 0 1-.75 1.57 3.9 3.9 0 0 1-1.47 1 6.51 6.51 0 0 1-2.41.38 6.84 6.84 0 0 1-2.72-.42 3.8 3.8 0 0 1-1.46-1.07 3.35 3.35 0 0 1-.71-1.39 14.73 14.73 0 0 1-.25-3.17v-6.66zm12 8.45l2.46-.25a3 3 0 0 0 .9 1.82 2.7 2.7 0 0 0 1.83.58 2.84 2.84 0 0 0 1.84-.51 1.56 1.56 0 0 0 .62-1.21 1.12 1.12 0 0 0-.26-.75 2.09 2.09 0 0 0-.91-.55c-.3-.1-1-.28-2-.54a6.83 6.83 0 0 1-2.91-1.23 3.26 3.26 0 0 1-1.16-2.52 3.17 3.17 0 0 1 .55-1.79 3.4 3.4 0 0 1 1.56-1.26 6.25 6.25 0 0 1 2.46-.44 5.3 5.3 0 0 1 3.55 1 3.66 3.66 0 0 1 1.24 2.76l-2.52.11a2.1 2.1 0 0 0-.7-1.38 2.48 2.48 0 0 0-1.6-.43 2.88 2.88 0 0 0-1.72.45.92.92 0 0 0-.4.78 1 1 0 0 0 .37.76 6.64 6.64 0 0 0 2.33.84 12.36 12.36 0 0 1 2.72.9 3.55 3.55 0 0 1 1.39 1.27 3.74 3.74 0 0 1 .49 2 3.63 3.63 0 0 1-.59 2 3.59 3.59 0 0 1-1.69 1.4 7.2 7.2 0 0 1-2.73.46 5.42 5.42 0 0 1-3.64-1.1 4.74 4.74 0 0 1-1.52-3.19zm11.66 0l2.46-.25a2.89 2.89 0 0 0 .9 1.82 2.7 2.7 0 0 0 1.83.58 2.86 2.86 0 0 0 1.84-.51 1.56 1.56 0 0 0 .62-1.21 1.08 1.08 0 0 0-.27-.75 2 2 0 0 0-.91-.55c-.29-.1-1-.28-2-.54a7 7 0 0 1-2.85-1.24 3.29 3.29 0 0 1-1.15-2.52 3.24 3.24 0 0 1 .54-1.79 3.45 3.45 0 0 1 1.56-1.26 6.25 6.25 0 0 1 2.46-.44 5.26 5.26 0 0 1 3.55 1 3.63 3.63 0 0 1 1.25 2.76l-2.52.11a2.1 2.1 0 0 0-.7-1.38 2.48 2.48 0 0 0-1.6-.43 2.88 2.88 0 0 0-1.72.45.92.92 0 0 0-.4.78 1 1 0 0 0 .37.76 6.56 6.56 0 0 0 2.32.84 12.29 12.29 0 0 1 2.73.9 3.46 3.46 0 0 1 1.38 1.27 3.92 3.92 0 0 1-.1 4 3.54 3.54 0 0 1-1.69 1.4 7.11 7.11 0 0 1-2.72.46 5.4 5.4 0 0 1-3.64-1.1 4.74 4.74 0 0 1-1.52-3.19zm12.22 4.06v-12.5h2.52v12.5zm16.21 0h-2.74l-1.1-2.84h-5l-1 2.84h-2.68l4.87-12.51h2.67l5 12.51zm-4.65-4.94l-1.72-4.65-1.69 4.65z"
              fill="#ffffff" data-color="1"></path>
    </g>
</svg>