<svg preserveAspectRatio="xMidYMid meet" data-bbox="4.58 14.51 509.97 68.59"
     viewBox="4.58 14.51 509.97 68.59"
     xmlns="http://www.w3.org/2000/svg" data-type="color" role="img">
    <g>
        <path d="M49.27 16.24c-.56-.25-1.27-.39-1.79-.39-.63 0-1.34.25-1.85.69-.63.56-1.04 1.56-1.04 2.6 0 .77.21 1.65.69 2.25.47.58 1.3 1.04 2.3 1.04a3.3 3.3 0 0 0 1.78-.51l.12 1.48c-.53.23-1.14.37-2.07.37-1.53 0-2.65-.65-3.38-1.44-.51-.54-1.2-1.62-1.2-3.25 0-1.18.39-2.55 1.55-3.52.81-.67 1.88-1.04 3.02-1.04.35 0 1.12.04 2 .35l-.13 1.37z"
              fill="#79a3c3" data-color="1"></path>
        <path d="M71.35 14.65v1.34h-3.11v7.63h-1.65v-7.63h-3.11v-1.34h7.87z" fill="#79a3c3"
              data-color="1"></path>
        <path d="M86.31 15.29c1.14-.69 2.48-.77 3.09-.77 1.12 0 2.06.3 2.64.88.79.79.84 1.81.84 2.78v3.64c0 .4 0 1.37.07 1.81H91.4v-1.21h-.04c-.74 1-1.92 1.35-2.94 1.35-.81 0-1.62-.25-2.14-.63s-.98-1.04-.98-2.04c0-.62.21-1.72 1.41-2.39.42-.25 1.35-.6 3.39-.6.32 0 .83.02 1.12.04v-.49c0-.35-.02-.88-.53-1.32-.51-.44-1.21-.47-1.63-.47-.63 0-1.6.12-2.65.88l-.1-1.46zm4.92 4.06c-.32-.02-.63-.04-.95-.04-1.3 0-2.07.16-2.57.49-.53.35-.65.83-.65 1.2 0 .53.25.86.47 1.04.33.26.81.39 1.28.39.67 0 1.37-.25 1.81-.7.3-.32.6-.84.6-1.6v-.78z"
              fill="#79a3c3" data-color="1"></path>
        <path d="M110.92 14.65v1.28h.04c.91-1.28 2.3-1.42 2.97-1.42 1.14 0 2.11.35 2.85 1.2.65.76 1.09 1.93 1.09 3.36 0 1.18-.33 2.5-1.04 3.38-.47.6-1.35 1.32-2.81 1.32-.69 0-1.37-.12-1.97-.44-.47-.25-.79-.54-1.02-.88h-.04v4.87h-1.65V14.65h1.58zm.76 6.81c.39.53 1.05.97 1.92.97.79 0 1.34-.37 1.69-.76.49-.54.83-1.46.83-2.65 0-.7-.11-1.67-.74-2.39-.4-.47-.98-.77-1.72-.77-1.11 0-1.69.6-2 1.05-.49.69-.65 1.46-.65 2.25-.02.77.19 1.66.67 2.3z"
              fill="#79a3c3" data-color="1"></path>
        <path d="M134.15 15.29c1.14-.69 2.48-.77 3.09-.77 1.12 0 2.06.3 2.64.88.79.79.84 1.81.84 2.78v3.64c0 .4 0 1.37.07 1.81h-1.55v-1.21h-.04c-.74 1-1.92 1.35-2.94 1.35-.81 0-1.62-.25-2.14-.63s-.98-1.04-.98-2.04c0-.62.21-1.72 1.41-2.39.42-.25 1.35-.6 3.39-.6.32 0 .83.02 1.12.04v-.49c0-.35-.02-.88-.53-1.32-.51-.44-1.21-.47-1.63-.47-.63 0-1.6.12-2.65.88l-.1-1.46zm4.92 4.06c-.32-.02-.63-.04-.95-.04-1.3 0-2.07.16-2.57.49-.53.35-.65.83-.65 1.2 0 .53.25.86.47 1.04.33.26.81.39 1.28.39.67 0 1.37-.25 1.81-.7.3-.32.6-.84.6-1.6v-.78z"
              fill="#79a3c3" data-color="1"></path>
        <path d="M158.83 18.29h4.57v-3.64h1.65v8.96h-1.65v-3.99h-4.57v3.99h-1.65v-8.96h1.65v3.64z"
              fill="#79a3c3"
              data-color="1"></path>
        <path d="M183.18 21.42l4.82-6.77h1.65v8.96H188v-6.77l-4.82 6.77h-1.65v-8.96h1.65v6.77z"
              fill="#79a3c3"
              data-color="1"></path>
        <path d="M207.28 19.51c.02.79.32 1.51.76 1.99.47.53 1.25.93 2.25.93.95 0 2.04-.42 2.71-.9v1.65l-.25.09c-.49.18-1.11.49-2.58.49-1.09 0-2.46-.19-3.48-1.28-.54-.58-1.16-1.65-1.16-3.38 0-1.9.74-2.99 1.39-3.57.54-.49 1.44-1.02 2.81-1.02 1.56 0 2.46.63 2.97 1.27.67.83.98 2.11.98 3.25v.47h-6.4zm4.64-1.23c.02-.63-.19-1.21-.51-1.62-.28-.35-.83-.81-1.78-.81-.84 0-1.42.4-1.79.9-.32.44-.51 1-.56 1.53h4.64z"
              fill="#79a3c3" data-color="1"></path>
        <path d="M12.33 70.43v8.96h-1.65v-7.63H6.23v7.63H4.58v-8.96h7.75z" fill="#79a3c3"
              data-color="1"></path>
        <path d="M30.39 70.43v1.28h.04c.91-1.28 2.3-1.42 2.97-1.42 1.14 0 2.11.35 2.85 1.2.65.76 1.09 1.93 1.09 3.36 0 1.18-.33 2.5-1.04 3.38-.47.6-1.35 1.32-2.81 1.32-.69 0-1.37-.12-1.97-.44-.47-.25-.79-.54-1.02-.88h-.04v4.87H28.8V70.43h1.59zm.75 6.8c.39.53 1.05.97 1.92.97.79 0 1.34-.37 1.69-.76.49-.54.83-1.46.83-2.65 0-.7-.11-1.67-.74-2.39-.4-.47-.98-.77-1.72-.77-1.11 0-1.69.6-2 1.05-.49.69-.65 1.46-.65 2.25-.01.77.2 1.67.67 2.3z"
              fill="#79a3c3" data-color="1"></path>
        <path d="M54.37 75.28c.02.79.32 1.51.76 1.99.47.53 1.25.93 2.25.93.95 0 2.04-.42 2.71-.9v1.65l-.25.09c-.49.18-1.11.49-2.58.49-1.09 0-2.46-.19-3.48-1.28-.54-.58-1.16-1.65-1.16-3.38 0-1.9.74-2.99 1.39-3.57.54-.49 1.44-1.02 2.81-1.02 1.56 0 2.46.63 2.97 1.27.67.83.98 2.11.98 3.25v.47h-6.4zm4.64-1.23c.02-.63-.19-1.21-.51-1.62-.28-.35-.83-.81-1.78-.81-.84 0-1.42.4-1.79.9-.32.44-.51 1-.56 1.53h4.64z"
              fill="#79a3c3" data-color="1"></path>
        <path d="M83.99 71.7c.79.88 1.16 2.07 1.16 3.22s-.37 2.34-1.16 3.22c-.6.67-1.69 1.41-3.39 1.41s-2.79-.74-3.39-1.41c-.79-.88-1.16-2.07-1.16-3.22s.37-2.34 1.16-3.22c.6-.67 1.69-1.41 3.39-1.41s2.79.74 3.39 1.41zm-5.51.98c-.47.62-.69 1.44-.69 2.23 0 .91.26 1.69.69 2.23.72.97 1.71 1.05 2.11 1.05s1.39-.09 2.11-1.05c.42-.54.69-1.32.69-2.23s-.26-1.69-.69-2.23a2.616 2.616 0 0 0-2.11-1.05c-.87 0-1.63.45-2.11 1.05z"
              fill="#79a3c3" data-color="1"></path>
        <path d="M108.11 70.43v7.63h1.27v3.87h-1.58V79.4h-6.38v2.53h-1.58v-3.87h.91c1.04-1.42 1.21-2.87 1.28-6.12l.04-1.51h6.04zm-1.66 7.63v-6.29h-2.95l-.02.7c-.07 2.57-.21 4.15-1.28 5.59h4.25z"
              fill="#79a3c3" data-color="1"></path>
        <path d="M132 71.7c.79.88 1.16 2.07 1.16 3.22s-.37 2.34-1.16 3.22c-.6.67-1.69 1.41-3.39 1.41-1.71 0-2.79-.74-3.39-1.41-.79-.88-1.16-2.07-1.16-3.22s.37-2.34 1.16-3.22c.6-.67 1.69-1.41 3.39-1.41 1.7 0 2.79.74 3.39 1.41zm-5.5.98c-.47.62-.69 1.44-.69 2.23 0 .91.26 1.69.69 2.23.72.97 1.71 1.05 2.11 1.05s1.39-.09 2.11-1.05c.42-.54.69-1.32.69-2.23s-.26-1.69-.69-2.23a2.616 2.616 0 0 0-2.11-1.05c-.88 0-1.64.45-2.11 1.05z"
              fill="#79a3c3" data-color="1"></path>
        <path d="M155.62 70.43v8.96h-1.65v-7.63h-2.92l-.05 2.33c-.05 2.53-.16 3.46-.46 4.17-.39.93-1 1.28-2 1.28-.3 0-.69-.05-1.02-.14l.21-1.32c.14.04.37.09.51.09.81 0 .95-.72 1.02-1.16.12-.74.14-1.56.16-2.92l.05-3.66h6.15z"
              fill="#79a3c3" data-color="1"></path>
        <path d="M173.26 75.28c.02.79.32 1.51.76 1.99.47.53 1.25.93 2.25.93.95 0 2.04-.42 2.71-.9v1.65l-.25.09c-.49.18-1.11.49-2.58.49-1.09 0-2.46-.19-3.48-1.28-.54-.58-1.16-1.65-1.16-3.38 0-1.9.74-2.99 1.39-3.57.54-.49 1.44-1.02 2.81-1.02 1.56 0 2.46.63 2.97 1.27.67.83.98 2.11.98 3.25v.47h-6.4zm4.64-1.23c.02-.63-.19-1.21-.51-1.62-.28-.35-.83-.81-1.78-.81-.84 0-1.42.4-1.79.9-.32.44-.51 1-.56 1.53h4.64z"
              fill="#79a3c3" data-color="1"></path>
        <path d="M197.18 74.07h4.57v-3.64h1.65v8.96h-1.65V75.4h-4.57v3.99h-1.65v-8.96h1.65v3.64z"
              fill="#79a3c3"
              data-color="1"></path>
        <path d="M221.53 77.2l4.82-6.77H228v8.96h-1.65v-6.77l-4.82 6.77h-1.65v-8.96h1.65v6.77z"
              fill="#79a3c3"
              data-color="1"></path>
        <path d="M245.63 75.28c.02.79.32 1.51.76 1.99.47.53 1.25.93 2.25.93.95 0 2.04-.42 2.71-.9v1.65l-.25.09c-.49.18-1.11.49-2.58.49-1.09 0-2.46-.19-3.48-1.28-.54-.58-1.16-1.65-1.16-3.38 0-1.9.74-2.99 1.39-3.57.54-.49 1.44-1.02 2.81-1.02 1.56 0 2.46.63 2.97 1.27.67.83.98 2.11.98 3.25v.47h-6.4zm4.64-1.23c.02-.63-.19-1.21-.51-1.62-.28-.35-.83-.81-1.78-.81-.84 0-1.42.4-1.79.9-.32.44-.51 1-.56 1.53h4.64z"
              fill="#79a3c3" data-color="1"></path>
        <path d="M299.43 72.01c-.56-.25-1.27-.39-1.79-.39-.63 0-1.34.25-1.85.69-.63.56-1.04 1.56-1.04 2.6 0 .77.21 1.65.69 2.25.47.58 1.3 1.04 2.3 1.04a3.3 3.3 0 0 0 1.78-.51l.12 1.48c-.53.23-1.14.37-2.07.37-1.53 0-2.65-.65-3.38-1.44-.51-.54-1.2-1.62-1.2-3.25 0-1.18.39-2.55 1.55-3.52.81-.67 1.88-1.04 3.02-1.04.35 0 1.12.04 2 .35l-.13 1.37z"
              fill="#79a3c3" data-color="1"></path>
        <path d="M321.51 70.43v1.34h-3.11v7.63h-1.65v-7.63h-3.11v-1.34h7.87z" fill="#79a3c3"
              data-color="1"></path>
        <path d="M338.33 70.43v1.28h.04c.91-1.28 2.3-1.42 2.97-1.42 1.14 0 2.11.35 2.85 1.2.65.76 1.09 1.93 1.09 3.36 0 1.18-.33 2.5-1.04 3.38-.47.6-1.35 1.32-2.81 1.32-.69 0-1.37-.12-1.97-.44-.47-.25-.79-.54-1.02-.88h-.04v4.87h-1.65V70.43h1.58zm.76 6.8c.39.53 1.05.97 1.92.97.79 0 1.34-.37 1.69-.76.49-.54.83-1.46.83-2.65 0-.7-.11-1.67-.74-2.39-.4-.47-.98-.77-1.72-.77-1.11 0-1.69.6-2 1.05-.49.69-.65 1.46-.65 2.25-.02.77.19 1.67.67 2.3z"
              fill="#79a3c3" data-color="1"></path>
        <path d="M362.31 75.28c.02.79.32 1.51.76 1.99.47.53 1.25.93 2.25.93.95 0 2.04-.42 2.71-.9v1.65l-.25.09c-.49.18-1.11.49-2.58.49-1.09 0-2.46-.19-3.48-1.28-.54-.58-1.16-1.65-1.16-3.38 0-1.9.74-2.99 1.39-3.57.54-.49 1.44-1.02 2.81-1.02 1.56 0 2.46.63 2.97 1.27.67.83.98 2.11.98 3.25v.47h-6.4zm4.64-1.23c.02-.63-.19-1.21-.51-1.62-.28-.35-.83-.81-1.78-.81-.84 0-1.42.4-1.79.9-.32.44-.51 1-.56 1.53h4.64z"
              fill="#79a3c3" data-color="1"></path>
        <path d="M388.98 79.4l-2.74-7.28v7.28h-1.65v-8.96h2.51l2.57 6.42h.09l2.55-6.42h2.53v8.96h-1.65v-7.28l-2.74 7.28h-1.47z"
              fill="#79a3c3" data-color="1"></path>
        <path d="M418.14 70.43v8.96h-1.65v-7.63h-2.92l-.05 2.32c-.05 2.53-.16 3.46-.46 4.17-.39.93-1 1.28-2 1.28-.3 0-.69-.05-1.02-.14l.21-1.32c.14.04.37.09.51.09.81 0 .95-.72 1.02-1.16.12-.74.14-1.56.16-2.92l.05-3.66h6.15z"
              fill="#79a3c3" data-color="1"></path>
        <path d="M435.78 75.28c.02.79.32 1.51.76 1.99.47.53 1.25.93 2.25.93.95 0 2.04-.42 2.71-.9v1.65l-.25.09c-.49.18-1.11.49-2.58.49-1.09 0-2.46-.19-3.48-1.28-.54-.58-1.16-1.65-1.16-3.38 0-1.9.74-2.99 1.39-3.57.54-.49 1.44-1.02 2.81-1.02 1.56 0 2.46.63 2.97 1.27.67.83.98 2.11.98 3.25v.47h-6.4zm4.64-1.23c.02-.63-.19-1.21-.51-1.62-.28-.35-.83-.81-1.78-.81-.84 0-1.42.4-1.79.9-.32.44-.51 1-.56 1.53h4.64z"
              fill="#79a3c3" data-color="1"></path>
        <path d="M459.7 74.07h4.57v-3.64h1.65v8.96h-1.65V75.4h-4.57v3.99h-1.65v-8.96h1.65v3.64z"
              fill="#79a3c3"
              data-color="1"></path>
        <path d="M484.05 77.2l4.82-6.77h1.65v8.96h-1.65v-6.77l-4.82 6.77h-1.65v-8.96h1.65v6.77z"
              fill="#79a3c3"
              data-color="1"></path>
        <path d="M508.15 75.28c.02.79.32 1.51.76 1.99.47.53 1.25.93 2.25.93.95 0 2.04-.42 2.71-.9v1.65l-.25.09c-.49.18-1.11.49-2.58.49-1.09 0-2.46-.19-3.48-1.28-.54-.58-1.16-1.65-1.16-3.38 0-1.9.74-2.99 1.39-3.57.54-.49 1.44-1.02 2.81-1.02 1.56 0 2.46.63 2.97 1.27.67.83.98 2.11.98 3.25v.47h-6.4zm4.64-1.23c.02-.63-.19-1.21-.51-1.62-.28-.35-.83-.81-1.78-.81-.84 0-1.42.4-1.79.9-.32.44-.51 1-.56 1.53h4.64z"
              fill="#79a3c3" data-color="1"></path>
        <path d="M88.41 47.19c.03 1.42.57 2.7 1.35 3.55.85.94 2.23 1.67 4.02 1.67 1.7 0 3.65-.75 4.84-1.6v2.95l-.44.16c-.88.32-1.98.88-4.62.88-1.95 0-4.4-.35-6.22-2.29-.97-1.04-2.07-2.95-2.07-6.04 0-3.4 1.32-5.34 2.48-6.38.98-.88 2.58-1.82 5.03-1.82 2.8 0 4.4 1.13 5.31 2.26 1.19 1.48 1.76 3.77 1.76 5.82v.85H88.41zm8.3-2.2c.03-1.13-.35-2.17-.91-2.89-.5-.63-1.48-1.45-3.17-1.45-1.51 0-2.55.72-3.21 1.6-.57.79-.91 1.79-1.01 2.74h8.3z"
              fill="#ffffff" data-color="2"></path>
        <path d="M128.26 38.51h2.95v2.3h.06c.47-.69 1.16-1.35 2.11-1.85.91-.47 1.85-.69 3.05-.69 1.29 0 3.21.22 4.53 1.76 1.29 1.51 1.48 3.52 1.48 5v9.52h-2.95v-8.3c0-1.48-.06-3.39-1.01-4.53-.31-.38-1.13-1.07-2.61-1.07-1.32 0-2.42.6-3.14 1.38-1.42 1.57-1.51 3.96-1.51 5.09v7.42h-2.95V38.51z"
              fill="#ffffff" data-color="2"></path>
        <path d="M185.86 30.97v23.58h-2.83v-2.26h-.06c-.53.72-1.07 1.16-1.85 1.6-1.07.6-2.11.91-3.55.91-2.52 0-4.12-1.1-5.12-2.36-1.19-1.48-1.82-3.58-1.82-6.1 0-2.01.41-4.24 2.14-6.07 1.48-1.57 3.05-2.01 4.78-2.01 1.6 0 2.55.28 3.52.85.72.41 1.29.88 1.79 1.6h.06v-9.75h2.94zm-4.12 11.56c-.82-1.13-1.95-1.89-3.58-1.89-1.19 0-2.33.41-3.21 1.54-.69.91-1.19 2.29-1.19 4.28 0 1.23.22 2.67 1.01 3.93 1.04 1.67 2.45 2.01 3.43 2.01 1.16 0 2.42-.44 3.36-1.6.88-1.1 1.35-2.77 1.35-4.24-.01-1.45-.38-2.89-1.17-4.03z"
              fill="#ffffff" data-color="2"></path>
        <path d="M217.4 47.19c.03 1.42.57 2.7 1.35 3.55.85.94 2.23 1.67 4.02 1.67 1.7 0 3.65-.75 4.84-1.6v2.95l-.44.16c-.88.32-1.98.88-4.62.88-1.95 0-4.4-.35-6.22-2.29-.97-1.04-2.07-2.95-2.07-6.04 0-3.4 1.32-5.34 2.48-6.38.98-.88 2.58-1.82 5.03-1.82 2.8 0 4.4 1.13 5.31 2.26 1.19 1.48 1.76 3.77 1.76 5.82v.85H217.4zm8.3-2.2c.03-1.13-.34-2.17-.91-2.89-.5-.63-1.48-1.45-3.17-1.45-1.51 0-2.55.72-3.21 1.6-.57.79-.91 1.79-1.01 2.74h8.3z"
              fill="#ffffff" data-color="2"></path>
        <path d="M257.96 39.64c2.04-1.23 4.43-1.38 5.53-1.38 2.01 0 3.68.53 4.72 1.57 1.41 1.42 1.51 3.24 1.51 4.97v6.51c0 .72 0 2.45.13 3.24h-2.77v-2.17h-.06c-1.32 1.79-3.43 2.42-5.25 2.42-1.45 0-2.89-.44-3.84-1.13-.94-.69-1.76-1.85-1.76-3.65 0-1.1.38-3.08 2.52-4.28.75-.44 2.42-1.07 6.07-1.07.57 0 1.48.03 2.01.06v-.88c0-.63-.03-1.57-.94-2.36-.91-.79-2.17-.85-2.92-.85-1.13 0-2.86.22-4.75 1.57l-.2-2.57zm8.81 7.26c-.57-.03-1.13-.06-1.7-.06-2.33 0-3.71.28-4.59.88-.94.63-1.16 1.48-1.16 2.14 0 .94.44 1.54.85 1.85.6.47 1.44.69 2.29.69 1.19 0 2.45-.44 3.24-1.26.53-.57 1.07-1.51 1.07-2.86V46.9z"
              fill="#ffffff" data-color="2"></path>
        <path d="M305.6 54.54h-3.52l-5.75-16.03h3.24l4.34 13.08h.06l4.43-13.08h2.95l-5.75 16.03z"
              fill="#ffffff"
              data-color="2"></path>
        <path d="M351.57 40.77c1.41 1.57 2.07 3.71 2.07 5.75s-.66 4.18-2.07 5.75c-1.07 1.19-3.02 2.52-6.07 2.52-3.05 0-5-1.32-6.07-2.52-1.41-1.57-2.07-3.71-2.07-5.75s.66-4.18 2.07-5.75c1.07-1.19 3.02-2.51 6.07-2.51 3.05 0 5 1.32 6.07 2.51zm-9.84 1.76c-.85 1.1-1.23 2.58-1.23 3.99 0 1.63.47 3.02 1.23 3.99 1.29 1.73 3.05 1.89 3.77 1.89.72 0 2.48-.16 3.77-1.89.75-.97 1.23-2.36 1.23-3.99 0-1.63-.47-3.02-1.23-3.99a4.693 4.693 0 0 0-3.77-1.89c-1.57.01-2.92.82-3.77 1.89z"
              fill="#ffffff" data-color="2"></path>
        <path d="M396 54.54h-2.95v-2.29h-.06c-.47.69-1.16 1.35-2.11 1.85-.91.47-1.85.69-3.05.69-1.29 0-3.21-.22-4.53-1.76-1.29-1.51-1.48-3.52-1.48-5v-9.52h2.95v8.3c0 1.48.06 3.4 1.01 4.53.31.38 1.13 1.07 2.61 1.07 1.32 0 2.42-.6 3.14-1.38 1.41-1.57 1.51-3.96 1.51-5.09v-7.42H396v16.02z"
              fill="#ffffff" data-color="2"></path>
        <path d="M428.24 38.51v2.61h.06c.85-1.73 2.48-2.86 4.28-2.86.41 0 1.23.09 1.57.16l.28.06v2.64c-.6-.22-1.13-.28-1.64-.28-1.07 0-1.98.31-2.83 1.32-1.41 1.63-1.54 3.96-1.54 5.22v7.17h-2.95V38.51h2.77z"
              fill="#ffffff" data-color="2"></path>
    </g>
</svg>