<svg height="512" width="512" xmlns="http://www.w3.org/2000/svg"><path fill="#fbb040" d="M256 78.552c-5.782 0-11.05 2.375-14.872 6.195a20.82 20.82 0 00-6.196 14.82v41.051l.105 1.24v.31c.309 5.164 2.684 9.862 6.091 13.323 2.48 2.427 5.479 4.285 8.886 5.318l.724.155.408.155h.105l.21.051.204.052h.105l.204.051h.105l.099.052h.105l.105.052h.105l.204.05h.413v.052h.309l.204.052h.309l.21.051h.309l.204.052h2.687l.211-.052h.308l.204-.051h.314l.203-.052h.205l.104-.052h.414l.105-.05h.098l.211-.052h.1l.104-.052h.105l.203-.051.21-.052h.1l.21-.051.408-.155h.105l.724-.155a22.341 22.341 0 008.88-5.318c3.723-3.822 6.097-9.088 6.097-14.872V99.567c0-5.783-2.374-11.049-6.097-14.82-3.817-3.82-9.08-6.195-14.868-6.195m28.611 67.799c-1.137 5.784-4.031 10.947-7.951 14.922-1.758 1.704-3.724 3.202-5.788 4.492h-.099l-.83.517-.309.155-.105.051-.203.103-.619.311-.104.051a23.41 23.41 0 01-2.276.982l-.099.05-.21.052-.1.051-.934.31-1.033.31-.617.206h-.105l-.204.052-.104.052-.311.05-.309.104h-.105l-.203.052h-.105l-.309.052-.1.05-.21.052h-.105l-.204.052h-.204l-.21.051h-.1l-.21.052h-.203l-.105.05h-.204l-.211.052h-.203l-.105.052h-.414l-.205.051h-.413l-.31.052h-.414l-.31.051h-2.269l-.31-.051h-.414l-.309-.052h-.414l-.309-.051h-.308l-.105-.052h-.31l-.105-.052h-.204l-.105-.05h-.204l-.211-.052h-.204l-.21-.051h-.098l-.21-.052h-.099l-.309-.052-.105-.05-.21-.052h-.099l-.21-.052h-.099l-.309-.104-.316-.05-.099-.052-.31-.052-.625-.206-1.032-.31-.928-.31-.105-.051-.204-.052-.105-.05-.309-.104c-1.138-.413-2.171-.929-3.302-1.548l-.31-.156v-.051c-2.375-1.29-4.44-2.943-6.407-4.802-4.025-3.976-6.814-9.139-7.952-14.922H57.926c-4.749 0-9.195 2.013-12.392 5.163a17.66 17.66 0 00-5.064 12.393v251.985c0 4.751 1.861 9.036 4.959 12.187l.105.207c3.196 3.149 7.643 5.163 12.392 5.163h396.049c4.854 0 9.195-2.014 12.393-5.163 3.203-3.151 5.163-7.539 5.163-12.394V163.907c0-4.854-1.96-9.243-5.163-12.393-3.197-3.15-7.538-5.163-12.393-5.163H284.611zM256 366.476a4.144 4.144 0 01-4.131-4.131c0-2.22 1.861-4.079 4.131-4.079h168.337c2.27 0 4.025 1.859 4.025 4.079 0 2.272-1.756 4.131-4.025 4.131H256zm0-44.098a4.144 4.144 0 01-4.131-4.131c0-2.271 1.861-4.078 4.131-4.078h116.079c2.276 0 4.131 1.807 4.131 4.078a4.14 4.14 0 01-4.131 4.131H256zm0-44.149c-2.27 0-4.131-1.808-4.131-4.079 0-2.272 1.861-4.079 4.131-4.079h168.337c2.27 0 4.025 1.807 4.025 4.079 0 2.271-1.756 4.079-4.025 4.079H256zm0-44.097c-2.27 0-4.131-1.807-4.131-4.079 0-2.273 1.861-4.08 4.131-4.08h116.079c2.276 0 4.131 1.807 4.131 4.08 0 2.271-1.854 4.079-4.131 4.079H256zm0-44.097c-2.27 0-4.131-1.859-4.131-4.08a4.144 4.144 0 014.131-4.13h168.337c2.27 0 4.025 1.859 4.025 4.13 0 2.221-1.756 4.08-4.025 4.08H256zM94.898 357.438c-2.276 0-4.131-1.806-4.131-4.078 0-2.221 1.855-4.08 4.131-4.08h83.652c2.269 0 4.13 1.859 4.13 4.08 0 2.272-1.861 4.078-4.13 4.078H94.898zm0-23.39c-2.276 0-4.131-1.808-4.131-4.078a4.141 4.141 0 014.131-4.132h83.652a4.145 4.145 0 014.13 4.132c0 2.271-1.861 4.078-4.13 4.078H94.898zm89.848-40.586c-1.552-6.815-6.406-12.961-13.424-17.712-8.782-5.937-21.068-9.655-34.597-9.655-13.53 0-25.718 3.719-34.598 9.655-7.024 4.751-11.879 10.896-13.425 17.712h96.044zm-96.564-16.161c2.585-3.048 5.788-5.835 9.399-8.314 10.124-6.815 23.962-11.05 39.144-11.05 15.18 0 29.02 4.234 39.135 11.05 3.723 2.479 6.821 5.267 9.399 8.314v-80.966H88.182v80.966zm48.543 24.319l-52.673.053-.099-.053h-.519v-.051h-.204l-.105-.052h-.21v-.052h-.099v-.052h-.21v-.052l-.098-.052h-.105v-.051h-.105l-.099-.052v-.052c-1.349-.672-2.171-2.014-2.171-3.614V192.254c0-2.271 1.756-4.079 4.025-4.079H189.39c2.275 0 4.13 1.808 4.13 4.079v105.288c0 2.271-1.855 4.078-4.13 4.078h-52.665zm10.74-78.745c-2.69-2.737-6.512-4.44-10.741-4.44-4.236 0-7.953 1.703-10.741 4.44-2.789 2.789-4.44 6.61-4.44 10.792s1.651 8.004 4.44 10.74c2.789 2.737 6.505 4.442 10.741 4.442 4.229 0 8.05-1.653 10.741-4.442 2.789-2.736 4.439-6.558 4.439-10.74s-1.65-8.003-4.439-10.792zm-10.74-12.599a23.352 23.352 0 0116.522 6.816c4.235 4.234 6.919 10.121 6.919 16.575 0 6.456-2.684 12.291-6.919 16.524-4.236 4.234-10.123 6.867-16.522 6.867-6.506 0-12.294-2.633-16.523-6.867-4.236-4.233-6.919-10.068-6.919-16.524 0-6.454 2.683-12.289 6.919-16.523 4.229-4.286 10.115-6.868 16.523-6.868z" fill-rule="evenodd" clip-rule="evenodd"/></svg>